<?xml version="1.0" standalone="no"?>
<!DOCTYPE svg PUBLIC "-//W3C//DTD SVG 20010904//EN"
 "http://www.w3.org/TR/2001/REC-SVG-20010904/DTD/svg10.dtd">
<svg version="1.0" xmlns="http://www.w3.org/2000/svg"
 width="512.000000pt" height="512.000000pt" viewBox="0 0 512.000000 512.000000"
 preserveAspectRatio="xMidYMid meet">
<metadata>
Created by potrace 1.16, written by Peter Selinger 2001-2019
</metadata>
<g transform="translate(0.000000,512.000000) scale(0.100000,-0.100000)"
fill="#000000" stroke="none">
<path d="M153 5099 c-50 -24 -119 -96 -139 -144 -21 -51 -21 -4008 0 -4059 22
-52 86 -117 141 -142 l50 -24 807 0 807 0 3 -262 c3 -243 5 -266 24 -309 27
-57 84 -115 138 -140 39 -18 98 -19 1489 -19 1230 0 1453 2 1482 14 48 20 120
90 145 140 20 42 20 54 20 1085 0 1171 5 1090 -77 1261 l-45 95 -637 638
c-350 351 -651 648 -668 660 l-33 22 0 500 c0 481 -1 502 -21 545 -27 60 -74
107 -134 136 l-50 24 -1630 0 c-1630 0 -1630 0 -1672 -21z m2738 -378 c29 -29
29 -30 29 -148 0 -130 -7 -151 -57 -172 -21 -8 -296 -11 -1051 -9 l-1024 3
-24 28 c-23 26 -24 35 -24 152 l0 123 31 26 31 26 1030 0 1030 0 29 -29z m399
-1699 l0 -628 26 -52 c14 -29 44 -67 66 -86 78 -67 64 -66 750 -66 l618 0 0
-910 0 -910 -1275 0 -1275 0 0 1640 0 1640 545 0 545 0 0 -628z m795 -42 l420
-420 -423 0 -422 0 0 420 c0 231 1 420 3 420 1 0 191 -189 422 -420z"/>
</g>
</svg>
